<?xml version="1.0" encoding="UTF-8"?>
<svg id="Layer_1" xmlns="http://www.w3.org/2000/svg" version="1.1" viewBox="0 0 150 150">
  <!-- Generator: Adobe Illustrator 30.2.1, SVG Export Plug-In . SVG Version: 2.1.1 Build 1)  -->
  <defs>
    <style>
      .st0 {
        fill: #e6e6e6;
      }
    </style>
  </defs>
  <path class="st0" d="M52.66,66.12h-.56c.23.14.46.27.7.38l-.14-.38Z"/>
  <path class="st0" d="M44.89,25.86c-1.72-.48-3.08-1.28-4.09-2.41-1.76-1.96-2.64-4.79-2.64-8.49,0-1.76.27-3.5.82-5.21.54-1.72,1.31-3.44,2.31-5.17l-8.1-3.22c-1.29,2.17-2.3,4.5-3.01,6.98-.72,2.48-1.08,5.09-1.08,7.85,0,4.28.77,7.92,2.31,10.91,1.27,2.48,2.98,4.46,5.11,5.93v21c0,5.49.94,10.23,2.83,14.23.19.4.39.81.6,1.19,0,.01.01.01.01.02l28.57,74.35h13.26l26.56-70.95h.01c.55-.58,1.07-1.2,1.55-1.87,3.34-4.63,5.01-10.7,5.01-18.2v-26.94H44.89ZM105.07,50.67c0,4.82-.98,8.52-2.95,11.12-1.95,2.59-4.76,3.89-8.42,3.89-2.58,0-4.78-.62-6.61-1.85-1.83-1.23-3.23-2.95-4.2-5.15-.97-2.2-1.46-4.82-1.46-7.84v-12.43h23.64v12.26ZM52.1,66.12c-.98-.58-1.83-1.33-2.56-2.23-2.11-2.62-3.16-6.61-3.16-11.99v-13.49h25.65v13.27c0,5.49-1.11,9.55-3.31,12.18-2.2,2.63-5.41,3.95-9.63,3.95-2.46,0-4.55-.44-6.29-1.31-.24-.11-.47-.24-.7-.38ZM75.35,127.23l-17.26-46.5c.14.01.29.01.44.01,5.08,0,9.35-1.42,12.82-4.28,3.48-2.86,5.86-6.41,7.17-10.67.79,2.02,2.02,3.96,3.7,5.83,1.68,1.86,3.63,3.38,5.85,4.56,1.58.84,3.22,1.37,4.94,1.6l-17.66,49.45Z"/>
</svg>